# Blender v2.69 (sub 0) OBJ File: 'creature.blend'
# www.blender.org
mtllib creature.mtl
o Cylinder
v 1.000000 0.000000 -0.100000
v 1.000000 0.000000 0.100000
v 0.500000 -0.866025 -0.100000
v -0.500000 -0.866025 -0.100000
v -1.000000 0.000000 -0.100000
v -1.000000 0.000000 0.100000
v -0.500000 0.866025 -0.100000
v -0.500000 0.866025 0.100000
v 0.500000 0.866025 -0.100000
v 0.500000 0.866025 0.100000
vn -0.866025 0.500000 0.000000
vn 0.000000 0.000000 1.000000
vn 0.866025 0.500000 0.000000
vn 0.000000 1.000000 0.000000
vn 0.866025 -0.500000 0.000000
vn -0.866025 -0.500000 0.000000
vn -0.000000 0.000000 -1.000000
vn -0.098058 -0.169842 0.980581
vn -0.000000 -0.225018 0.974355
vn 0.099340 -0.057354 0.993399
usemtl (null)
s off
f 5//1 6//1 7//1
f 2//2 10//2 8//2
f 9//3 10//3 1//3
f 7//4 8//4 9//4
f 1//5 2//5 3//5
f 4//6 6//6 5//6
f 1//7 3//7 4//7
f 6//1 8//1 7//1
f 3//8 2//8 8//8
f 4//9 3//9 6//9
f 3//10 8//10 6//10
f 10//3 2//3 1//3
f 8//4 10//4 9//4
f 9//7 1//7 7//7
f 1//7 4//7 5//7
f 7//7 1//7 5//7
